<?xml version="1.0" encoding="utf-8"?>
<svg viewBox="0 0 220 220" xmlns="http://www.w3.org/2000/svg">
  <g transform="matrix(0.73324, 0, 0, 0.73324, -72.008087, -72.960251)">
    <path style="stroke: rgb(0, 0, 0); fill: rgb(255, 185, 106); stroke-width: 5px; stroke-linecap: round;" d="M 179.16 358.466 L 123.102 337.964 C 123.102 337.964 115.164 292.484 120.517 261.712 C 139.65 246.52 181.09 234.345 181.09 234.345 C 181.09 234.345 177.645 215.929 185.137 162.197 C 203.383 150.342 226.423 139.296 245.88 133.941 C 268.55 140.672 289.825 153.496 307.826 166.765 C 314.508 193.824 312.443 232.765 312.443 232.765 C 312.443 232.765 355.641 247.396 375.121 260.42 C 380.134 286.888 376.414 336.025 377.06 336.025 C 377.706 336.025 315.024 365.105 315.024 365.105 L 248.744 335.115 L 179.16 358.466 Z"/>
    <g>
      <path style="stroke: rgb(0, 0, 0); fill: none; stroke-width: 5px; stroke-linecap: round;" d="M 121.809 261.712 L 179.968 286.914 L 179.968 356.783"/>
      <path style="stroke: rgb(0, 0, 0); fill: none; stroke-width: 5px; stroke-linecap: round;" d="M 181.26 286.914 L 244.106 260.946 L 182.915 234.685"/>
      <path style="stroke: rgb(0, 0, 0); fill: none; stroke-width: 5px; stroke-linecap: round;" d="M 248.228 254.775 L 247.819 193.215 L 188.339 164.484"/>
      <path style="stroke: rgb(0, 0, 0); fill: none; stroke-width: 5px; stroke-linecap: round;" d="M 248.295 254.252 L 248.098 332.912 L 248.295 254.252 Z"/>
    </g>
    <g transform="matrix(-1, 0, 0, 1, 496.828308, 0)">
      <path style="stroke: rgb(0, 0, 0); fill: none; stroke-width: 5px; stroke-linecap: round;" d="M 121.809 261.712 L 179.968 286.914 L 179.968 361.874"/>
      <path style="stroke: rgb(0, 0, 0); fill: none; stroke-width: 5px; stroke-linecap: round;" d="M 181.26 286.914 L 243.823 260.946 L 185.507 234.166"/>
      <path style="stroke: rgb(0, 0, 0); fill: none; stroke-width: 5px; stroke-linecap: round;" d="M 247.536 193.781 L 189.136 168.659"/>
    </g>
    <path style="fill: rgb(255, 255, 255); fill-opacity: 0.5;" d="M 128.118 262.173 C 123.883 259.392 178.215 233.779 183.197 236.872 L 238.548 260.365 C 239.603 261.188 185.632 283.088 181.42 284.209 C 177.208 285.33 127.813 261.687 128.118 262.173 Z"/>
    <path style="fill: rgb(255, 255, 255); fill-opacity: 0.5;" d="M 190.333 162.318 C 186.098 159.537 240.998 133.973 245.98 137.066 C 265.717 138.167 303.304 165.115 304.184 166.782 C 305.239 167.605 253.86 190.024 249.648 191.145 C 245.436 192.266 190.028 161.832 190.333 162.318 Z"/>
    <path style="fill: rgb(255, 255, 255); fill-opacity: 0.5;" d="M 259.561 258.497 C 255.326 261.278 311.782 287.102 316.764 284.009 L 370.041 259.219 C 371.096 258.396 317.125 236.496 312.913 235.375 C 308.701 234.254 259.256 258.983 259.561 258.497 Z" transform="matrix(-1, 0, 0, -1, 629.390594, 519.603714)"/>
  </g>
</svg>