<?xml version="1.0" encoding="utf-8"?>
<svg viewBox="0 0 220 220" xmlns="http://www.w3.org/2000/svg" xmlns:bx="https://boxy-svg.com">
  <defs>
    <filter id="opacity-filter-0" color-interpolation-filters="sRGB" x="-500%" y="-500%" width="1000%" height="1000%" bx:preset="opacity 1 1">
      <feComponentTransfer>
        <feFuncA type="table" tableValues="0 1"/>
      </feComponentTransfer>
    </filter>
  </defs>
  <rect style="fill: rgb(255, 225, 192);" x="38.359" y="55.565" width="126.183" height="127.711" rx="24" ry="24"/>
  <path style="stroke: rgb(0, 0, 0); fill: rgb(255, 185, 106);" d="M 86.184 108.792 C 86.184 108.792 116.568 80.537 137.569 55.565 C 154.658 35.245 170.702 39.768 175.224 42.992 C 180.245 46.571 188.685 55.565 164.542 81.327 C 148.825 98.098 125.327 120.055 113.137 131.289 L 79.407 141.02 L 86.184 108.792 Z"/>
  <path d="M 146.878 37.839 C 155.581 29.131 169.705 29.131 178.41 37.839 L 182.158 41.593 C 190.861 50.304 190.861 64.423 182.158 73.128 L 121.076 134.24 C 118.382 136.903 115.068 138.855 111.413 139.907 L 80.439 148.766 C 77.837 149.509 75.05 148.766 73.129 146.598 C 71.24 144.957 70.496 142.169 71.24 139.568 L 80.098 108.593 C 81.151 104.938 83.102 101.625 85.767 98.929 L 146.878 37.839 Z M 167.631 48.352 C 164.998 45.45 160.29 45.45 157.379 48.352 L 148.364 57.363 L 162.645 71.64 L 171.657 62.349 C 174.569 59.717 174.569 55.008 171.657 52.106 L 167.631 48.352 Z M 94.408 112.682 L 89.205 130.802 L 107.324 125.598 C 108.564 125.257 109.647 124.607 110.546 123.708 L 152.144 82.141 L 137.865 67.862 L 96.298 109.461 C 95.4 110.359 94.749 111.443 94.408 112.682 Z M 93.261 49.929 C 97.382 49.929 100.696 53.258 100.696 57.363 C 100.696 61.481 97.382 64.796 93.261 64.796 L 58.572 64.796 C 51.729 64.796 46.182 70.34 46.182 77.186 L 46.182 161.435 C 46.182 168.28 51.729 173.824 58.572 173.824 L 142.82 173.824 C 149.666 173.824 155.21 168.28 155.21 161.435 L 155.21 126.743 C 155.21 122.624 158.524 119.31 162.645 119.31 C 166.763 119.31 170.078 122.624 170.078 126.743 L 170.078 161.435 C 170.078 176.488 157.874 188.692 142.82 188.692 L 58.572 188.692 C 43.517 188.692 31.314 176.488 31.314 161.435 L 31.314 77.186 C 31.314 62.133 43.517 49.929 58.572 49.929 L 93.261 49.929 Z" style="stroke-miterlimit: 3; stroke: rgb(255, 255, 255); stroke-width: 9px; filter: url(#opacity-filter-0); mix-blend-mode: multiply;"/>
</svg>