<?xml version="1.0" encoding="utf-8"?>
<svg viewBox="0 0 300 200" preserveAspectRatio="none" xmlns="http://www.w3.org/2000/svg">
  <path
    d="M 20.16 2.5 L 279.84 2.5 C 284.665 2.535 289.171 4.769 292.329 8.319 C 295.485 11.872 297.469 16.939 297.5 22.37 L 297.5 134.861 C 297.469 140.289 295.485 146.908 292.329 150.46 C 287.923 155.484 286.874 155.636 278.296 158.403 C 265.789 164.472 279.52 192.502 228.429 200 C 249.442 181.216 245.338 157.608 224.642 158.403 L 20.16 156.279 C 15.335 156.244 10.829 154.01 7.671 150.46 C 4.516 146.908 2.531 140.289 2.5 134.861 L 2.5 22.37 C 2.531 16.939 4.516 11.872 7.671 8.319 C 10.829 4.769 15.335 2.535 20.16 2.5 Z"
    style="fill: none; stroke: rgb(0, 0, 0); stroke-width: 2px;" />
</svg>