<?xml version="1.0" encoding="utf-8"?>
<svg viewBox="0 0 100 100" xmlns="http://www.w3.org/2000/svg" xmlns:bx="https://boxy-svg.com">
  <defs>
    <bx:grid x="0" y="0" width="5" height="5"/>
    <bx:grid x="0" y="0" width="5" height="5"/>
  </defs>
  <g style="" transform="matrix(1.51507, 0, 0, 1.51507, -30.810286, -31.246151)">
    <path style="stroke-width: 0.5px; fill: rgb(255, 185, 106);" d="M 34.031 78.857 C 21.012 60.563 24.228 47.266 26.322 43.159 C 23.124 25.528 28.57 17.567 37.226 35.018 L 45.352 35.018 C 55.412 14.473 58.642 30.815 56.186 42.796 C 57.042 43.01 59.265 51.136 58.409 50.922 C 58.666 49.631 70.951 51.999 75.387 54.025 C 75.538 54.293 79.829 49.958 73.341 49.741 C 72.863 45.529 77.447 45.429 79.695 46.419 C 85.613 49.027 82.739 58.148 80.564 59.951 C 82.213 62.662 82.329 75.217 80.911 78.54 C 79.187 84.44 71.132 84.79 72.73 77.849 C 72.73 77.849 72.807 77.332 70.84 78.124 C 71.102 82.365 62.175 85.457 64.312 78.957 L 56.957 78.697 C 57.707 78.723 54.262 83.888 52.073 83.401 C 46.537 85.524 48.473 81.318 49.866 77.707 C 48.917 80.047 42.142 78.509 40.102 78.272 C 41.918 81.066 29.581 86.785 34.031 78.857 Z" transform="matrix(1, 0, 0, 1, 0, 0)">
      <title>Cuerpito</title>
    </path>
    <g transform="matrix(1, 0, 0, 1, 0, 0)">
      <title>Patitas</title>
      <path style="stroke-width: 0.5px; fill: rgb(255, 255, 255);" d="M 33.949 78.777 C 33.531 79.985 39.724 79.51 40.142 78.302 C 40.865 82.844 29.712 85.838 33.949 78.777 Z"/>
      <path style="stroke-width: 0.5px; fill: rgb(255, 255, 255);" d="M 49.112 79.267 C 49.371 80.627 57.263 79.408 57.167 78.903 C 57.19 81.599 45.88 88.847 49.112 79.267 Z"/>
      <path style="stroke-width: 0.5px; fill: rgb(255, 255, 255);" d="M 63.951 78.946 L 70.909 77.849 C 71.589 80.673 63.215 87.127 63.951 78.946 Z"/>
      <path style="fill: rgb(255, 255, 255); stroke-width: 0.5px;" d="M 72.752 77.849 C 74.282 80.718 81.584 79.366 81.016 78.302 C 79.751 83.952 71.252 85.222 72.752 77.849 Z"/>
    </g>
    <path style="stroke-width: 0.5px; stroke-linejoin: round; stroke-linecap: round; fill: rgb(255, 255, 255);" d="M 37.424 76.98 C 33.509 75.058 24.664 59.234 27.237 53.716 C 31.302 54.023 31.575 53.074 32.649 50.709 C 32.9 46.009 36.308 46.161 37.521 45.117 C 39.443 39.641 37.585 36.695 37.149 35.08 C 38.511 34.452 45.052 35.413 44.547 35.172 C 41.818 35.981 40.402 41.578 41.888 45.118 C 44.421 47.603 45.531 46.232 46.673 52.287 C 46.878 53.373 50.477 54.21 53.451 52.127 C 57.632 54.528 51.888 73.935 49.657 78.219 C 48.764 80.262 39.914 78.981 37.424 76.98 Z" transform="matrix(1, 0, 0, 1, 0, 0)">
      <title>panchita frente</title>
    </path>
    <path style="fill: rgb(255, 255, 255); stroke-width: 0.5px; stroke: rgb(0, 0, 0);" d="M 56.853 78.749 C 67.815 78.876 72.73 77.617 72.73 77.617 C 71.844 74.639 59.352 71.753 56.853 78.749 Z" transform="matrix(1, 0, 0, 1, 0, 0)">
      <title>Panchita abajo</title>
    </path>
    <path style="fill: rgb(254, 131, 131); stroke-width: 0.3px; stroke: rgb(0, 0, 0);" d="M 36.601 55.908 C 36.102 56.225 36.141 59.987 37.922 60.493 C 40.725 61.29 40.941 56.074 40.872 55.949 C 40.667 55.575 38.58 55.211 38.789 55.525 L 38.441 58.48 L 38.744 55.521 C 38.137 54.958 36.616 55.797 36.601 55.908 Z" transform="matrix(1, 0, 0, 1, 0, 0)">
      <title>Lenguita</title>
    </path>
    <g transform="matrix(1, 0, 0, 1, 0, 0)">
      <title>Tompa</title>
      <path style="stroke-width: 0.25px; fill: rgb(83, 76, 76);" d="M 35.979 50.334 C 36.16 48.783 40.638 48.631 41.045 50.384 C 41.338 51.644 38.399 53.63 38.473 53.338 C 38.513 53.644 35.799 51.875 35.979 50.334 Z"/>
      <path style="stroke-linejoin: round; stroke-width: 2px; fill: rgb(255, 185, 106);" d="M 36.938 51.101 L 36.715 50.846 C 36.715 50.336 37.382 49.828 38.495 49.828 C 39.608 49.828 40.277 50.336 40.277 50.846 L 40.055 51.101 C 39.831 50.336 39.164 50.336 38.718 50.336 L 38.718 52.69 C 38.718 52.945 38.273 52.945 38.273 52.69 L 38.273 50.336 C 37.828 50.336 37.161 50.336 36.938 51.101 Z"/>
      <path style="fill: rgb(83, 76, 76);" d="M 32.676 52.338 C 32.513 51.717 33.135 51.638 33.232 52.007 C 32.558 54.261 36.335 56.511 38.124 54.797 C 38.247 54.007 38.255 53.679 38.244 53.01 L 38.818 53.01 C 38.716 53.468 38.777 54.455 38.994 54.666 C 40.932 56.544 45.283 54.301 45.006 52.596 C 44.867 51.737 45.642 52.073 45.612 52.595 C 45.683 53.517 43.518 57.276 38.723 55.459 C 33.805 57.157 32.677 53.851 32.676 52.338 Z"/>
    </g>
    <g transform="matrix(1, 0, 0, 1, 0, 0)">
      <title>Ojo iz</title>
      <ellipse style="stroke: rgb(0, 0, 0);" cx="48.199" cy="47.395" rx="1.126" ry="1.092"/>
      <ellipse style="fill: rgb(255, 255, 255);" cx="47.958" cy="47.011" rx="0.556" ry="0.556"/>
      <path style="fill: rgb(255, 255, 255);" d="M 28.877 43.716 C 27.828 41.939 32.295 40.772 32.919 41.718 C 33.483 42.438 30.396 45.657 28.877 43.716 Z" transform="matrix(-1, 0, 0, -1, 61.705139, 85.710835)"/>
    </g>
    <g transform="matrix(1, 0, 0, 1, -17.285934705822683, -0.3101939903228583)">
      <title>Ojo de</title>
      <ellipse style="stroke: rgb(0, 0, 0);" cx="48.199" cy="47.395" rx="1.126" ry="1.092"/>
      <ellipse style="fill: rgb(255, 255, 255);" cx="47.958" cy="47.011" rx="0.556" ry="0.556"/>
      <path style="fill: rgb(255, 255, 255);" d="M 64.083 42.49 C 63.034 44.267 67.501 45.434 68.125 44.488 C 68.689 43.768 65.602 40.549 64.083 42.49 Z"/>
    </g>
    <path style="stroke: rgb(0, 0, 0); stroke-width: 0.5px; fill: rgb(255, 255, 255);" d="M 48.418 36.406 L 54.07 39.967 C 55.857 39.201 54.823 26.97 53.76 27.425 C 52.1 26.659 47.431 35.951 48.418 36.406 Z" transform="matrix(1, 0, 0, 1, 0, 0)">
      <title>Orejita iz</title>
    </path>
    <path style="stroke: rgb(0, 0, 0); stroke-width: 0.5px; fill: rgb(255, 255, 255);" d="M 28.365 40.122 C 28.87 41.056 33.7 36.455 34.017 36.174 C 35.116 35.566 29.888 26.463 29.14 26.883 C 27.774 26.503 26.067 39.484 28.365 40.122 Z" transform="matrix(1, 0, 0, 1, 0, 0)">
      <title>Orejita de</title>
    </path>
    <path style="fill: rgb(255, 255, 255); stroke-width: 0.5px;" d="M 79.323 57.573 C 81.506 53.174 81.437 48.307 77.48 46.225 C 82.189 46.581 85.548 51.873 80.631 59.721 L 79.323 57.573 Z" transform="matrix(1, 0, 0, 1, 0, 0)">
      <title>Colita</title>
    </path>
    <path style="stroke: rgb(0, 0, 0); stroke-width: 0.5px; fill: none;" d="M 34.055 78.857 C 21.036 60.563 24.252 47.266 26.346 43.159 C 23.148 25.528 28.594 17.567 37.25 35.018 L 45.376 35.018 C 55.436 14.473 58.666 30.815 56.21 42.796 C 57.066 43.01 59.289 51.136 58.433 50.922 C 58.69 49.631 70.975 51.999 75.411 54.025 C 75.562 54.293 79.853 49.958 73.365 49.741 C 72.887 45.529 77.471 45.429 79.719 46.419 C 85.637 49.027 82.763 58.148 80.588 59.951 C 82.237 62.662 82.353 75.217 80.935 78.54 C 79.211 84.44 71.132 84.79 72.73 77.849 C 72.73 77.849 72.831 77.332 70.864 78.124 C 71.126 82.365 62.199 85.457 64.336 78.957 L 56.863 78.697 C 56.863 78.697 55.771 82.011 52.586 83.401 C 47.05 85.524 48.497 81.318 49.89 77.707 C 48.941 80.047 42.166 78.509 40.126 78.272 C 41.942 81.066 29.605 86.785 34.055 78.857 Z" transform="matrix(1, 0, 0, 1, 0, 0)">
      <title>Contorno</title>
    </path>
  </g>
</svg>